ModelForces
version=1
nRows=4
nColumns=206
inDegrees=no

This file contains the forces exerted on a model during a simulation.

A force is a generalized force, meaning that it can be either a force (N) or a torque (Nm).

Units are S.I. units (second, meters, Newtons, ...)
Angles are in degrees.

endheader
time	glut_med1_r	glut_med2_r	glut_med3_r	glut_min1_r	glut_min2_r	glut_min3_r	semimem_r	semiten_r	bifemlh_r	bifemsh_r	sar_r	add_long_r	add_brev_r	add_mag1_r	add_mag2_r	add_mag3_r	tfl_r	pect_r	grac_r	glut_max1_r	glut_max2_r	glut_max3_r	iliacus_r	psoas_r	quad_fem_r	gem_r	peri_r	rect_fem_r	vas_med_r	vas_int_r	vas_lat_r	med_gas_r	lat_gas_r	soleus_r	tib_post_r	flex_dig_r	flex_hal_r	tib_ant_r	per_brev_r	per_long_r	per_tert_r	ext_dig_r	ext_hal_r	glut_med1_l	glut_med2_l	glut_med3_l	glut_min1_l	glut_min2_l	glut_min3_l	semimem_l	semiten_l	bifemlh_l	bifemsh_l	sar_l	add_long_l	add_brev_l	add_mag1_l	add_mag2_l	add_mag3_l	tfl_l	pect_l	grac_l	glut_max1_l	glut_max2_l	glut_max3_l	iliacus_l	psoas_l	quad_fem_l	gem_l	peri_l	rect_fem_l	vas_med_l	vas_int_l	vas_lat_l	med_gas_l	lat_gas_l	soleus_l	tib_post_l	flex_dig_l	flex_hal_l	tib_ant_l	per_brev_l	per_long_l	per_tert_l	ext_dig_l	ext_hal_l	ercspn_r	ercspn_l	intobl_r	intobl_l	extobl_r	extobl_l	femur_lat_meniscii_l.femur_lat_l.force.X	femur_lat_meniscii_l.femur_lat_l.force.Y	femur_lat_meniscii_l.femur_lat_l.force.Z	femur_lat_meniscii_l.femur_lat_l.torque.X	femur_lat_meniscii_l.femur_lat_l.torque.Y	femur_lat_meniscii_l.femur_lat_l.torque.Z	femur_lat_meniscii_l.meniscus_lat_l.force.X	femur_lat_meniscii_l.meniscus_lat_l.force.Y	femur_lat_meniscii_l.meniscus_lat_l.force.Z	femur_lat_meniscii_l.meniscus_lat_l.torque.X	femur_lat_meniscii_l.meniscus_lat_l.torque.Y	femur_lat_meniscii_l.meniscus_lat_l.torque.Z	femur_med_meniscii_l.femur_med_l.force.X	femur_med_meniscii_l.femur_med_l.force.Y	femur_med_meniscii_l.femur_med_l.force.Z	femur_med_meniscii_l.femur_med_l.torque.X	femur_med_meniscii_l.femur_med_l.torque.Y	femur_med_meniscii_l.femur_med_l.torque.Z	femur_med_meniscii_l.meniscus_med_l.force.X	femur_med_meniscii_l.meniscus_med_l.force.Y	femur_med_meniscii_l.meniscus_med_l.force.Z	femur_med_meniscii_l.meniscus_med_l.torque.X	femur_med_meniscii_l.meniscus_med_l.torque.Y	femur_med_meniscii_l.meniscus_med_l.torque.Z	femur_lat_meniscii_r.femur_lat_r.force.X	femur_lat_meniscii_r.femur_lat_r.force.Y	femur_lat_meniscii_r.femur_lat_r.force.Z	femur_lat_meniscii_r.femur_lat_r.torque.X	femur_lat_meniscii_r.femur_lat_r.torque.Y	femur_lat_meniscii_r.femur_lat_r.torque.Z	femur_lat_meniscii_r.meniscus_lat_r.force.X	femur_lat_meniscii_r.meniscus_lat_r.force.Y	femur_lat_meniscii_r.meniscus_lat_r.force.Z	femur_lat_meniscii_r.meniscus_lat_r.torque.X	femur_lat_meniscii_r.meniscus_lat_r.torque.Y	femur_lat_meniscii_r.meniscus_lat_r.torque.Z	femur_med_meniscii_r.femur_med_r.force.X	femur_med_meniscii_r.femur_med_r.force.Y	femur_med_meniscii_r.femur_med_r.force.Z	femur_med_meniscii_r.femur_med_r.torque.X	femur_med_meniscii_r.femur_med_r.torque.Y	femur_med_meniscii_r.femur_med_r.torque.Z	femur_med_meniscii_r.meniscus_med_r.force.X	femur_med_meniscii_r.meniscus_med_r.force.Y	femur_med_meniscii_r.meniscus_med_r.force.Z	femur_med_meniscii_r.meniscus_med_r.torque.X	femur_med_meniscii_r.meniscus_med_r.torque.Y	femur_med_meniscii_r.meniscus_med_r.torque.Z	femur_med_tibia_l.tibia_upper_l.force.X	femur_med_tibia_l.tibia_upper_l.force.Y	femur_med_tibia_l.tibia_upper_l.force.Z	femur_med_tibia_l.tibia_upper_l.torque.X	femur_med_tibia_l.tibia_upper_l.torque.Y	femur_med_tibia_l.tibia_upper_l.torque.Z	femur_med_tibia_l.femur_med_l.force.X	femur_med_tibia_l.femur_med_l.force.Y	femur_med_tibia_l.femur_med_l.force.Z	femur_med_tibia_l.femur_med_l.torque.X	femur_med_tibia_l.femur_med_l.torque.Y	femur_med_tibia_l.femur_med_l.torque.Z	femur_lat_tibia_l.tibia_upper_l.force.X	femur_lat_tibia_l.tibia_upper_l.force.Y	femur_lat_tibia_l.tibia_upper_l.force.Z	femur_lat_tibia_l.tibia_upper_l.torque.X	femur_lat_tibia_l.tibia_upper_l.torque.Y	femur_lat_tibia_l.tibia_upper_l.torque.Z	femur_lat_tibia_l.femur_lat_l.force.X	femur_lat_tibia_l.femur_lat_l.force.Y	femur_lat_tibia_l.femur_lat_l.force.Z	femur_lat_tibia_l.femur_lat_l.torque.X	femur_lat_tibia_l.femur_lat_l.torque.Y	femur_lat_tibia_l.femur_lat_l.torque.Z	femur_med_tibia_r.tibia_upper_r.force.X	femur_med_tibia_r.tibia_upper_r.force.Y	femur_med_tibia_r.tibia_upper_r.force.Z	femur_med_tibia_r.tibia_upper_r.torque.X	femur_med_tibia_r.tibia_upper_r.torque.Y	femur_med_tibia_r.tibia_upper_r.torque.Z	femur_med_tibia_r.femur_med_r.force.X	femur_med_tibia_r.femur_med_r.force.Y	femur_med_tibia_r.femur_med_r.force.Z	femur_med_tibia_r.femur_med_r.torque.X	femur_med_tibia_r.femur_med_r.torque.Y	femur_med_tibia_r.femur_med_r.torque.Z	femur_lat_tibia_r.tibia_upper_r.force.X	femur_lat_tibia_r.tibia_upper_r.force.Y	femur_lat_tibia_r.tibia_upper_r.force.Z	femur_lat_tibia_r.tibia_upper_r.torque.X	femur_lat_tibia_r.tibia_upper_r.torque.Y	femur_lat_tibia_r.tibia_upper_r.torque.Z	femur_lat_tibia_r.femur_lat_r.force.X	femur_lat_tibia_r.femur_lat_r.force.Y	femur_lat_tibia_r.femur_lat_r.force.Z	femur_lat_tibia_r.femur_lat_r.torque.X	femur_lat_tibia_r.femur_lat_r.torque.Y	femur_lat_tibia_r.femur_lat_r.torque.Z	aACL_R	pACL_R	aPCL_R	pPCL_R	aMCL_R	mMCL_R	pMCL_R	aLCL_R	mLCL_R	pLCL_R	aPCL_L	pPCL_L	aMCL_L	aLCL_L	ground_prescribedForce_-40_fx	ground_prescribedForce_-40_fy	ground_prescribedForce_-40_fz
      0.12528979	     14.17092253	     10.17643800	     10.97042291	      4.66164268	      5.36584500	      5.98601470	      5.98913903	      7.74691322	     11.59881185	     12.89675357	      2.69881622	     10.15053720	      7.22261305	      5.22710806	      4.45420030	      7.60933823	      5.66998996	      3.94022969	      2.75060200	      6.57743918	     10.00987548	      7.54379997	     30.93736648	     22.39539569	      6.43639920	      4.21673415	      8.68439518	     28.72021195	     23.88024428	     25.45822209	     34.92369298	      3.28173326	      1.79693270	     12.83906294	     16.77799891	      7.64144287	      8.29363440	     23.52576983	      7.85368930	     17.89537201	      1.08296781	      8.56983948	      2.00366679	     14.17092253	     10.17643800	     10.97042291	      4.66164268	      5.36584500	      5.98601470	     17.87498069	      7.62878794	     15.44346639	     12.81400030	      2.65748843	     10.15053720	      7.22261305	      5.22710806	      4.45420030	      7.60933823	      6.34358528	      3.94022969	      2.75240199	      6.57743918	     10.00987548	      7.54379997	     30.93736648	     22.39539569	      6.43639920	      4.21673415	      8.68439518	     21.29847630	     12.03712542	     13.94824853	     14.98260672	     30.97042590	     14.40082236	     66.11532682	     57.25599264	      6.55311759	      6.51063579	     16.57092766	      8.94289254	     22.38704886	      3.46022200	     11.22088088	      3.51671509	     43.89694972	     43.89694972	     16.55046255	     16.55046255	     33.64100160	     33.64100160	      2.76307435	     50.99597937	     -9.56042239	      5.21997485	     -0.02578839	      1.48581788	     -2.76307435	    -50.99597937	      9.56042239	     -1.74637766	      0.02558040	     -0.48301696	     -3.31599387	     20.97615968	     -3.40468921	      0.94473225	     -0.02138609	     -1.00501789	      3.31599387	    -20.97615968	      3.40468921	      0.28075727	      0.00368718	     -0.29758878	    129.52059100	     86.17834251	     10.60782302	     -6.44612823	      3.23098051	     53.27465357	   -129.52059100	    -86.17834251	    -10.60782302	      2.64889378	     -3.79871949	     -2.29842096	     71.87085188	     23.10863638	      3.01086339	     -0.72777698	     -1.52837937	     29.33763452	    -71.87085188	    -23.10863638	     -3.01086339	     -0.35427521	      1.25640776	     -1.42108872	      0.00000000	      0.00000000	      0.00000000	      0.00000000	      0.00000000	      0.00000000	      0.00000000	      0.00000000	      0.00000000	      0.00000000	      0.00000000	      0.00000000	      0.00000000	      0.00000000	      0.00000000	      0.00000000	      0.00000000	      0.00000000	      0.00000000	      0.00000000	      0.00000000	      0.00000000	      0.00000000	      0.00000000	    -53.07836623	    -52.79556374	     17.06702957	     -1.26082826	      0.98215438	     -0.86923120	     53.07836623	     52.79556374	    -17.06702957	      7.97458696	     -0.89408806	     22.02140961	      0.00000000	      0.00000000	      0.00000000	      0.00000000	      0.00000000	      0.00000000	      0.00000000	      0.00000000	      0.00000000	      0.00000000	      0.00000000	      0.00000000	     11.17545238	      0.00000000	    127.17316547	     62.89962778	      0.00000000	      0.00000000	      0.00000000	      0.00000000	      0.00000000	      0.00000000	      0.00000000	      0.00000000	      0.00000001	      0.00000000	     84.26488000	    -70.70660000	      0.00000000
      0.12572260	     14.13261901	     10.15045779	     10.94210443	      4.65019689	      5.35326013	      5.96986422	      5.97584276	      7.72613036	     11.57698194	     12.87699377	      2.69112902	     10.12434577	      7.20501638	      5.21379988	      4.44261719	      7.58841773	      5.66604638	      3.93048656	      2.74323537	      6.56054456	      9.98412140	      7.52413726	     30.88904407	     22.34031963	      6.42026981	      4.20872726	      8.65936366	     28.66166536	     23.81268204	     25.39308358	     34.84019991	      3.27372899	      1.79727450	     12.82086172	     16.71389748	      7.61639792	      8.27473542	     23.47157093	      7.82548977	     17.83803700	      2.87779752	      8.54759078	      1.99599306	     14.13261901	     10.15045779	     10.94210443	      4.65019689	      5.35326013	      5.96986422	     17.82400649	      7.60827680	     15.39960612	     12.78184431	      2.65099101	     10.12434577	      7.20501638	      5.21379988	      4.44261719	      7.58841773	      6.33058051	      3.93048656	      2.74556185	      6.56054456	      9.98412140	      7.52413726	     30.88904407	     22.34031963	      6.42026981	      4.20872726	      8.65936366	     21.23816261	     12.00543766	     13.91105669	     14.94258479	     30.88138744	     14.35929352	     65.92415511	     57.17085522	      6.53207399	      6.49030922	     16.52448000	      8.91711065	     22.33197442	      3.45174334	     11.18869568	      3.50664043	     43.78894655	     43.78894655	     16.50680167	     16.50680167	     33.60102646	     33.60102646	      2.76307435	     50.99597937	     -9.56042239	      5.21997485	     -0.02578839	      1.48581788	     -2.76307435	    -50.99597937	      9.56042239	     -1.74637766	      0.02558040	     -0.48301696	     -3.31599387	     20.97615968	     -3.40468921	      0.94473225	     -0.02138609	     -1.00501789	      3.31599387	    -20.97615968	      3.40468921	      0.28075727	      0.00368718	     -0.29758878	    129.26680231	     85.84888578	     10.33069706	     -6.32224475	      3.22175847	     53.17164163	   -129.26680231	    -85.84888578	    -10.33069706	      2.63005446	     -3.78430727	     -2.29687323	     72.16769743	     23.18697236	      2.95234101	     -0.70207152	     -1.53536073	     29.45913586	    -72.16769743	    -23.18697236	     -2.95234101	     -0.35734493	      1.26346881	     -1.42714500	      0.00000000	      0.00000000	      0.00000000	      0.00000000	      0.00000000	      0.00000000	      0.00000000	      0.00000000	      0.00000000	      0.00000000	      0.00000000	      0.00000000	      0.00000000	      0.00000000	      0.00000000	      0.00000000	      0.00000000	      0.00000000	      0.00000000	      0.00000000	      0.00000000	      0.00000000	      0.00000000	      0.00000000	    -52.85539890	    -52.53928645	     17.03245576	     -1.25664863	      0.97915892	     -0.86564243	     52.85539890	     52.53928645	    -17.03245576	      7.95630813	     -0.89075524	     21.92883181	      0.00000000	      0.00000000	      0.00000000	      0.00000000	      0.00000000	      0.00000000	      0.00000000	      0.00000000	      0.00000000	      0.00000000	      0.00000000	      0.00000000	     11.27084113	      0.00000000	    126.96886084	     62.61093701	      0.00000000	      0.00000000	      0.00000000	      0.00000000	      0.00000000	      0.00000000	      0.00000000	      0.00000000	      0.00000001	      0.00000000	     84.26488000	    -70.70660000	      0.00000000
      0.12722769	     14.00117255	     10.06130059	     10.84492624	      4.61091626	      5.31007239	      5.91444068	      5.92974843	      7.65457495	     11.49947976	     12.79765886	      2.66534748	     10.03446670	      7.14466376	      5.16813105	      4.40287060	      7.51662061	      5.65174156	      3.89704831	      2.71762536	      6.50257177	      9.89574733	      7.45666558	     30.72325827	     22.15135126	      6.36491536	      4.18125921	      8.57339047	     28.45985640	     23.58361504	     25.17059990	     34.55502195	      3.23998727	      1.79442639	     12.73990793	     16.48466778	      7.52650788	      8.20555533	     23.28302945	      7.73322084	     17.64503880	      4.73184050	      8.47938883	      1.97131606	     14.00117255	     10.06130059	     10.84492624	      4.61091626	      5.31007239	      5.91444068	     17.64896270	      7.53788999	     15.24902562	     12.67148961	      2.62869543	     10.03446670	      7.14466376	      5.16813105	      4.40287060	      7.51662061	      6.28595113	      3.89704831	      2.72208662	      6.50257177	      9.89574733	      7.45666558	     30.72325827	     22.15135126	      6.36491536	      4.18125921	      8.57339047	     21.03110895	     11.89671443	     13.78344625	     14.80527349	     30.57546521	     14.21661335	     65.26756836	     56.87867454	      6.45979506	      6.42052240	     16.36504941	      8.82858960	     22.14292754	      3.42265253	     11.07816497	      3.47204763	     43.41828385	     43.41828385	     16.35697558	     16.35697558	     33.46389093	     33.46389093	      2.76307435	     50.99597937	     -9.56042239	      5.21997485	     -0.02578839	      1.48581788	     -2.76307435	    -50.99597937	      9.56042239	     -1.74637766	      0.02558040	     -0.48301696	     -3.31599387	     20.97615968	     -3.40468921	      0.94473225	     -0.02138609	     -1.00501789	      3.31599387	    -20.97615968	      3.40468921	      0.28075727	      0.00368718	     -0.29758878	    127.97699071	     84.87488563	     10.15876979	     -6.22642027	      3.18663852	     52.64219021	   -127.97699071	    -84.87488563	    -10.15876979	      2.59636845	     -3.74176331	     -2.27395936	     73.13181640	     23.56411015	      2.83804750	     -0.64693889	     -1.55712386	     29.85247715	    -73.13181640	    -23.56411015	     -2.83804750	     -0.36764957	      1.28437447	     -1.44358213	      0.00000000	      0.00000000	      0.00000000	      0.00000000	      0.00000000	      0.00000000	      0.00000000	      0.00000000	      0.00000000	      0.00000000	      0.00000000	      0.00000000	      0.00000000	      0.00000000	      0.00000000	      0.00000000	      0.00000000	      0.00000000	      0.00000000	      0.00000000	      0.00000000	      0.00000000	      0.00000000	      0.00000000	    -52.19031739	    -51.76560263	     16.79142149	     -1.23922079	      0.96757150	     -0.85489720	     52.19031739	     51.76560263	    -16.79142149	      7.84389727	     -0.88017611	     21.65267400	      0.00000000	      0.00000000	      0.00000000	      0.00000000	      0.00000000	      0.00000000	      0.00000000	      0.00000000	      0.00000000	      0.00000000	      0.00000000	      0.00000000	     11.57561559	      0.00000000	    126.32873755	     61.83480281	      0.00000000	      0.00000000	      0.00000000	      0.00000000	      0.00000000	      0.00000000	      0.00000000	      0.00000000	      0.00000001	      0.00000000	     84.26488000	    -70.70660000	      0.00000000
      0.13048997	     13.72539008	      9.87423835	     10.64105232	      4.52848604	      5.21946021	      5.79815957	      5.83369395	      7.50522161	     11.32810142	     12.60131357	      2.61357311	      9.84590539	      7.01809519	      5.07231912	      4.31949610	      7.36596589	      5.61870978	      3.82687766	      2.66355627	      6.38096387	      9.71036434	      7.31513075	     30.37564362	     21.75507141	      6.24876135	      4.12367684	      8.39264302	     28.03793003	     23.12937630	     24.72353876	     33.98295429	      3.15448464	      1.77772761	     12.53571216	     15.98426557	      7.32418476	      8.04723654	     22.88032647	      7.54449891	     17.24413541	      6.48416759	      8.36891944	      1.92613629	     13.72539008	      9.87423835	     10.64105232	      4.52848604	      5.21946021	      5.79815957	     17.28112444	      7.39022129	     14.93276856	     12.43993246	      2.58191479	      9.84590539	      7.01809519	      5.07231912	      4.31949610	      7.36596589	      6.19231340	      3.82687766	      2.67282382	      6.38096387	      9.71036434	      7.31513075	     30.37564362	     21.75507141	      6.24876135	      4.12367684	      8.39264302	     20.59631736	     11.66870716	     13.51581934	     14.51735074	     29.93173147	     13.91641245	     63.88723859	     56.26559889	      6.30780778	      6.27392691	     16.03037267	      8.64263623	     21.74603953	      3.36164596	     10.84584926	      3.39936802	     42.64043004	     42.64043004	     16.04265719	     16.04265719	     33.17641069	     33.17641069	      2.76307435	     50.99597937	     -9.56042239	      5.21997485	     -0.02578839	      1.48581788	     -2.76307435	    -50.99597937	      9.56042239	     -1.74637766	      0.02558040	     -0.48301696	     -3.31599387	     20.97615968	     -3.40468921	      0.94473225	     -0.02138609	     -1.00501789	      3.31599387	    -20.97615968	      3.40468921	      0.28075727	      0.00368718	     -0.29758878	    124.25360365	     82.93416687	     10.64110101	     -6.38123805	      3.08845748	     51.10424566	   -124.25360365	    -82.93416687	    -10.64110101	      2.55861211	     -3.63772751	     -2.18747469	     75.15956852	     24.06484382	      2.71134869	     -0.58295158	     -1.60037616	     30.68259933	    -75.15956852	    -24.06484382	     -2.71134869	     -0.38185579	      1.32404157	     -1.48515413	      0.00000000	      0.00000000	      0.00000000	      0.00000000	      0.00000000	      0.00000000	      0.00000000	      0.00000000	      0.00000000	      0.00000000	      0.00000000	      0.00000000	      0.00000000	      0.00000000	      0.00000000	      0.00000000	      0.00000000	      0.00000000	      0.00000000	      0.00000000	      0.00000000	      0.00000000	      0.00000000	      0.00000000	    -51.22464324	    -50.79546744	     16.46184681	     -1.21674820	      0.95193563	     -0.83519979	     51.22464324	     50.79546744	    -16.46184681	      7.69187335	     -0.86546393	     21.25079169	      0.00000000	      0.00000000	      0.00000000	      0.00000000	      0.00000000	      0.00000000	      0.00000000	      0.00000000	      0.00000000	      0.00000000	      0.00000000	      0.00000000	     12.22987339	      0.00000000	    124.89985356	     60.29660907	      0.00000000	      0.00000000	      0.00000000	      0.00000000	      0.00000000	      0.00000000	      0.00000000	      0.00000000	      0.00000001	      0.00000000	     84.26488000	    -70.70660000	      0.00000000
